HIERARCHY
ROOT Hips
{
	OFFSET 0.00000 0.00000 0.00000
	CHANNELS 6 Xposition Yposition Zposition Zrotation Yrotation Xrotation 
	JOINT LHipJoint
	{
		OFFSET 0 0 0
		CHANNELS 3 Zrotation Yrotation Xrotation
		JOINT LeftHip
		{
			OFFSET 1.38280 -1.96574 0.54427
			CHANNELS 3 Zrotation Yrotation Xrotation
			JOINT LeftKnee
			{
				OFFSET 2.72096 -7.47578 0.00000
				CHANNELS 3 Zrotation Yrotation Xrotation
				JOINT LeftAnkle
				{
					OFFSET 2.73041 -7.50176 0.00000
					CHANNELS 3 Zrotation Yrotation Xrotation
					JOINT LeftToe
					{
						OFFSET 0.16150 -0.44371 2.18031
						CHANNELS 3 Zrotation Yrotation Xrotation
						End Site
						{
							OFFSET 0.00000 -0.00000 1.12127
						}
					}
				}
			}
		}
	}
	JOINT RHipJoint
	{
		OFFSET 0 0 0
		CHANNELS 3 Zrotation Yrotation Xrotation
		JOINT RightHip
		{
			OFFSET -1.57224 -1.96575 0.54427
			CHANNELS 3 Zrotation Yrotation Xrotation
			JOINT RightKnee
			{
				OFFSET -2.95935 -8.13076 0.00000
				CHANNELS 3 Zrotation Yrotation Xrotation
				JOINT RightAnkle
				{
					OFFSET -2.52345 -6.93311 0.00000
					CHANNELS 3 Zrotation Yrotation Xrotation
					JOINT RightToe
					{
						OFFSET -0.04475 -0.10171 1.86688
						CHANNELS 3 Zrotation Yrotation Xrotation
						End Site
						{
							OFFSET -0.00000 -0.00000 0.95157
						}
					}
				}
			}
		}
	}
	JOINT lowerback
	{
		OFFSET 0 0 0
		CHANNELS 3 Zrotation Yrotation Xrotation
		JOINT Chest
		{
			OFFSET 0.00669 2.07367 0.09104
			CHANNELS 3 Zrotation Yrotation Xrotation
			JOINT Chest2
			{
				OFFSET -0.00664 2.06198 -0.04732
				CHANNELS 3 Zrotation Yrotation Xrotation
				JOINT lowerneck
				{
					OFFSET 0 0 0
					CHANNELS 3 Zrotation Yrotation Xrotation
					JOINT Neck
					{
						OFFSET -0.00021 1.49948 0.16345
						CHANNELS 3 Zrotation Yrotation Xrotation
						JOINT Head
						{
							OFFSET 0.06080 1.50567 -0.26702
							CHANNELS 3 Zrotation Yrotation Xrotation
							End Site
							{
								OFFSET 0.01726 1.56470 -0.11854
							}
						}
					}
				}
				JOINT LeftCollar
				{
					OFFSET 0 0 0
					CHANNELS 3 Zrotation Yrotation Xrotation
					JOINT LeftShoulder
					{
						OFFSET 3.14993 0.82932 -0.22488
CHANNELS 3 Zrotation Xrotation Yrotation
						JOINT LeftElbow
						{
OFFSET 0 -5.682360 -0.000000
CHANNELS 3 Zrotation Xrotation Yrotation
							JOINT LeftWrist
							{
OFFSET 0 -3.171120 0.000000
CHANNELS 3 Zrotation Xrotation Yrotation
								JOINT lhand
								{
									OFFSET 0 0 0
CHANNELS 3 Zrotation Xrotation Yrotation
									JOINT LFingers
									{
OFFSET 0 -0.632690 0.000000
CHANNELS 3 Zrotation Xrotation Yrotation
										End Site
										{
OFFSET 0 -0.510090 0.000000
										}
									}
								}
								JOINT LThumb
								{
OFFSET 0 0.000000 0.000000
CHANNELS 3 Zrotation Xrotation Yrotation
									End Site
									{
OFFSET 0 -0.517880 0.517880
									}
								}
							}
						}
					}
				}
				JOINT RightCollar
				{
					OFFSET 0 0 0
					CHANNELS 3 Zrotation Yrotation Xrotation
					JOINT RightShoulder
					{
						OFFSET -3.10571 0.91279 -0.33334
CHANNELS 3 Zrotation Xrotation Yrotation
						JOINT RightElbow
						{
OFFSET 0 -5.871200 -0.000000
CHANNELS 3 Zrotation Xrotation Yrotation
							JOINT RightWrist
							{
OFFSET 0 -3.375890 0.000000
CHANNELS 3 Zrotation Xrotation Yrotation
								JOINT rhand
								{
									OFFSET 0 0 0
CHANNELS 3 Zrotation Xrotation Yrotation
									JOINT RFingers
									{
OFFSET 0 -0.603260 0.000000
CHANNELS 3 Zrotation Xrotation Yrotation
										End Site
										{
OFFSET 0 -0.486360 0.000000
										}
									}
								}
								JOINT RThumb
								{
OFFSET 0 0.000000 0.000000
CHANNELS 3 Zrotation Xrotation Yrotation
									End Site
									{
OFFSET 0 -0.493790 0.493790
									}
								}
							}
						}
					}
				}
			}
		}
	}
}
MOTION
Frames: 9
Frame Time: 0.008333333333333333
-9.915955 18.329772 -12.917586 -540.163516 221.742144 556.009351 0.000000 0.000000 0.000000 -16.672731 -15.455195 -43.858477 2.801208 10.364177 30.166090 0.710638 -0.691047 -15.709585 0.870001 -5.945079 -16.625808 0.000000 0.000000 0.000000 19.128752 10.167653 -22.803062 -2.862697 -10.469073 30.509952 -0.742853 4.260776 -15.402276 -2.843462 10.437147 -30.404431 3.461869 2.492034 -9.501380 2.586980 2.731863 0.996660 1.176535 1.404204 6.421277 1.564694 2.876481 -18.421212 -5.560145 4.850912 20.812507 -1.537110 1.699860 9.839245 0.000000 0.000000 0.000000 1.052023 4.851648 -32.901704 20.372286 -31.088116 5.722414 14.763610 -10.650621 -34.396552 0.000000 0.000000 0.000000 -7.125000 0.000000 0.000000 -22.735555 63.880402 10.675470 0.000000 0.000000 0.000000 -25.316493 -7.756133 3.944952 -18.154317 -28.353371 -4.622755 -26.109967 0.202846 -25.443968 0.000000 0.000000 0.000000 7.125000 0.000000 0.000000 2.151262 2.080267 2.073234
-10.913752 18.274962 -12.224053 -542.777992 218.736124 556.418736 0.000000 0.000000 0.000000 -16.937224 -12.278840 -45.064338 1.182145 6.899551 19.418471 0.680737 8.367745 -20.807667 0.961478 -6.243354 -17.492204 0.000000 0.000000 0.000000 24.129868 5.104537 -15.703609 -2.017361 -8.902060 25.489428 -0.809667 4.630817 -16.072488 -3.461906 11.407563 -33.667200 3.294232 2.754655 -9.394211 2.611905 3.102740 1.166164 1.353863 1.582476 6.532625 2.231708 3.593335 -18.311079 -4.972632 5.529326 20.964416 -1.346929 2.138007 9.897660 0.000000 0.000000 0.000000 0.770849 5.207992 -35.057849 18.740477 -29.094776 4.904051 13.381436 -9.488279 -35.371806 0.000000 0.000000 0.000000 -7.125000 0.000000 0.000000 -25.280450 64.380129 12.236512 0.000000 0.000000 0.000000 -24.437214 -12.603697 10.294952 -23.769102 -34.918521 -7.574277 -26.613171 -7.332013 -25.929301 0.000000 0.000000 0.000000 7.125000 0.000000 0.000000 1.917405 1.455480 1.869281
-11.962531 18.012767 -11.171621 -545.455853 218.624815 556.708419 0.000000 0.000000 0.000000 -18.387310 -6.070445 -43.971371 0.826169 5.798859 16.202031 0.722195 12.118256 -24.642044 0.485113 -4.466206 -12.392119 0.000000 0.000000 0.000000 26.971185 1.752758 -8.937852 -1.857541 -8.562851 24.437111 -0.762441 7.428087 -15.652857 -3.755101 11.827069 -35.123082 2.829297 3.241139 -10.125582 2.181470 3.807436 1.084951 1.312339 1.919953 6.862757 1.964429 4.322035 -19.247860 -4.001840 6.408852 21.477388 -0.818689 2.611909 10.243973 0.000000 0.000000 0.000000 2.304506 5.348552 -35.197172 16.690537 -26.447961 3.948513 11.861985 -8.581225 -35.620597 0.000000 0.000000 0.000000 -7.125000 0.000000 0.000000 -27.202140 64.185579 13.109570 0.000000 0.000000 0.000000 -20.434695 -12.513074 21.651173 -29.882138 -40.791478 -11.332754 -22.929212 -4.432790 -29.493563 0.000000 0.000000 0.000000 7.125000 0.000000 0.000000 4.600638 -1.486122 4.733712
-13.050297 17.973976 -9.666741 -543.278753 218.414907 555.568758 0.000000 0.000000 0.000000 -21.603348 -4.136020 -42.635886 1.499692 7.734063 21.909923 0.049073 14.166133 -20.665715 0.001138 -0.212331 -0.583374 0.000000 0.000000 0.000000 24.650935 1.105163 -2.405778 -1.806326 -8.450171 24.090118 -0.473716 4.913191 -12.252522 -4.406552 12.682529 -38.191557 -0.806866 2.786816 -12.211097 0.899232 3.754032 0.403669 2.083882 1.781627 7.165635 2.286493 6.033052 -19.319505 -5.131614 8.885114 19.676935 -0.907367 3.686296 9.773638 0.000000 0.000000 0.000000 3.043491 5.178879 -31.390795 14.777424 -23.835067 3.135543 13.097756 -6.721273 -35.934864 0.000000 0.000000 0.000000 -7.125000 0.000000 0.000000 -26.222988 64.797174 12.976208 0.000000 0.000000 0.000000 -13.881015 -6.204590 28.091229 -32.171250 -42.683093 -12.856828 -20.140053 -0.811088 -31.855605 0.000000 0.000000 0.000000 7.125000 0.000000 0.000000 6.523742 -3.325236 6.935229
-13.822823 18.152887 -8.127503 -542.190352 216.662776 555.492252 0.000000 0.000000 0.000000 -23.475795 -4.405415 -39.641810 2.211384 9.293179 26.716723 0.521520 10.673474 -21.399574 0.002085 0.287542 0.789972 0.000000 0.000000 0.000000 20.923699 -1.164910 -7.347230 -4.386281 -12.655478 38.095217 -0.000345 -2.161200 1.512097 -2.521404 9.873870 -28.571615 -0.661307 3.035612 -12.251136 -0.398805 4.138980 -0.687607 0.667420 2.011571 6.122278 3.510155 7.894679 -17.821066 -7.014414 11.535242 18.785793 -1.405967 4.850526 9.501983 0.000000 0.000000 0.000000 4.864083 2.933421 -33.491371 15.990749 -25.507540 3.642264 13.074311 -7.771335 -36.087477 0.000000 0.000000 0.000000 -7.125000 0.000000 0.000000 -26.424625 64.924015 13.159854 0.000000 0.000000 0.000000 -6.040902 1.441717 21.118661 -21.905805 -32.868498 -6.535576 -18.376998 2.673599 -30.029773 0.000000 0.000000 0.000000 7.125000 0.000000 0.000000 7.303321 -1.141226 7.508067
-14.357308 18.234104 -6.869757 -541.902559 215.499519 554.987810 0.000000 0.000000 0.000000 -23.954221 -5.560894 -35.264037 2.731714 10.247481 29.781847 1.401000 6.486624 -25.542681 0.104932 2.088525 5.750413 0.000000 0.000000 0.000000 16.744008 3.830911 -18.262658 -8.985097 -16.798088 56.038568 0.003303 -2.537306 1.548321 -0.749856 5.531057 -15.429821 -0.652890 2.511651 -11.530197 0.410096 3.394469 -0.133378 1.363946 1.635141 6.262671 4.332606 10.073768 -15.837515 -9.281079 14.795097 17.525264 -1.896793 6.287841 9.158726 0.000000 0.000000 0.000000 5.509840 -0.138192 -38.739334 23.363500 -34.483569 7.343192 15.068188 -10.917330 -34.545788 0.000000 0.000000 0.000000 -7.125000 0.000000 0.000000 -22.551914 64.097383 10.699113 0.000000 0.000000 0.000000 -4.717284 1.982237 8.712602 -14.164322 -22.969089 -2.891938 -12.273920 18.586309 -28.335062 0.000000 0.000000 0.000000 7.125000 0.000000 0.000000 10.707475 1.524262 10.607297
-14.818623 18.159832 -5.717914 -541.642499 209.421780 553.635601 0.000000 0.000000 0.000000 -24.862909 -6.914856 -30.069112 3.199559 11.011325 32.318036 1.762440 2.014910 -25.881117 0.026840 1.057579 2.907422 0.000000 0.000000 0.000000 12.915842 13.346850 -23.921158 -7.129631 -15.440093 49.362904 -0.081220 0.307800 -5.278352 -1.248805 7.085142 -19.967734 -0.402978 0.853278 -11.278510 1.707999 1.067371 0.252701 2.204148 0.476496 6.562091 5.514046 10.682254 -13.754770 -9.181685 15.601566 19.280740 -1.999408 6.761908 9.534769 0.000000 0.000000 0.000000 6.527069 -6.843186 -43.923894 25.584854 -36.795755 8.637733 16.049242 -12.169781 -33.841245 0.000000 0.000000 0.000000 -7.125000 0.000000 0.000000 -20.765157 63.716066 9.629342 0.000000 0.000000 0.000000 -5.333044 7.262072 7.167552 -16.695193 -26.454220 -3.950645 -16.043801 10.090831 -27.864618 0.000000 0.000000 0.000000 7.125000 0.000000 0.000000 8.451233 1.437218 8.328391
-15.277284 18.126308 -4.599226 -541.739459 201.055462 552.793805 0.000000 0.000000 0.000000 -24.915219 -7.889936 -23.749607 3.135368 10.911033 31.980371 1.787568 -2.803769 -24.551088 0.002970 0.345502 0.949234 0.000000 0.000000 0.000000 7.517094 25.910116 -25.555209 -3.003875 -10.700689 31.277678 -0.260604 0.301251 -9.537423 -1.995416 8.856105 -25.346464 -0.131013 -0.335226 -11.114383 2.437228 -0.598950 0.236509 2.541462 -0.343913 6.523660 5.704586 10.464371 -13.141163 -8.321743 15.100522 19.461280 -1.846526 6.656599 9.380608 0.000000 0.000000 0.000000 6.136671 -13.745237 -46.632788 23.274035 -34.387077 7.292493 15.747253 -10.303156 -33.844631 0.000000 0.000000 0.000000 -7.125000 0.000000 0.000000 -21.103627 63.638935 9.755100 0.000000 0.000000 0.000000 -5.114684 11.709318 6.310355 -19.164167 -29.622188 -5.111791 -17.747498 3.720705 -28.472892 0.000000 0.000000 0.000000 7.125000 0.000000 0.000000 7.503301 0.543761 7.496471
-15.678875 18.138434 -3.488056 -540.506850 195.718781 551.665346 0.000000 0.000000 0.000000 -26.285567 -5.262683 -16.931995 2.398591 9.651182 27.854265 1.538166 -6.294987 -22.243783 0.062983 -1.619614 -4.455526 0.000000 0.000000 0.000000 5.159806 24.951095 -32.757262 -1.404172 -7.495205 21.191282 -0.010916 0.587678 -1.860565 -5.998184 14.426468 -44.974167 -0.688917 -0.368023 -10.434785 1.899267 -0.534422 0.805839 2.301810 -0.325027 6.738715 5.841163 10.208817 -13.579571 -8.390173 14.610302 18.377310 -1.952279 6.458484 9.064306 0.000000 0.000000 0.000000 6.027225 -14.734534 -46.676393 23.925808 -35.085673 7.663869 17.040141 -10.531140 -33.922338 0.000000 0.000000 0.000000 -7.125000 0.000000 0.000000 -19.734305 64.056297 9.288815 0.000000 0.000000 0.000000 -5.329665 12.699834 6.092799 -19.624546 -30.187361 -5.341264 -17.167040 3.832453 -28.459514 0.000000 0.000000 0.000000 7.125000 0.000000 0.000000 7.843169 0.655363 7.826851
